# xmcd
#
# Track frame offsets: 
#        150
#        11782
#        30812
#        46717
#        61570
#        79009
#        93239
#        107822
#        125064
#        140124
#        158477
#
# Disc length: 2379 seconds
#
# Revision: 0
# Processed by: cddbd v1.5.2PL0 Copyright (c) Steve Scherf et al.
# Submitted via: ExactAudioCopy v0.99pb4
#
DISCID=7c09490b
DTITLE=Kajetan Drozd Acoustic Trio - bourbon and the blues
DYEAR=2011
DGENRE=Blues
TTITLE0=Car Drive
TTITLE1=Hell Ain't Hot Enough 
TTITLE2=My Girl Hates Rockabilly
TTITLE3=I Have A Woman
TTITLE4=Good Old Blues
TTITLE5=Wake Up Blues
TTITLE6=Blues Hat
TTITLE7=Bourbon And The Blues
TTITLE8=Once I Was In Memphis
TTITLE9=Billy Plays The Double Bass
TTITLE10=No Train Has Come
EXTD=
EXTT0=
EXTT1=
EXTT2=
EXTT3=
EXTT4=
EXTT5=
EXTT6=
EXTT7=
EXTT8=
EXTT9=
EXTT10=
PLAYORDER=
